<svg width="800" height="768" viewBox="0 0 800 768" fill="none" xmlns="http://www.w3.org/2000/svg">
<path d="M365.396 384.998L240.396 534.998C239.345 536.26 238.553 537.715 238.065 539.283C237.577 540.85 237.402 542.498 237.551 544.133C237.7 545.768 238.169 547.357 238.932 548.811C239.695 550.264 240.737 551.553 241.998 552.604C243.259 553.655 244.715 554.447 246.282 554.935C247.85 555.423 249.498 555.598 251.133 555.449C252.768 555.3 254.357 554.831 255.811 554.068C257.264 553.305 258.553 552.263 259.604 551.002L384.604 401.002C385.655 399.741 386.447 398.285 386.935 396.717C387.423 395.15 387.598 393.502 387.449 391.867C387.3 390.232 386.831 388.643 386.068 387.189C385.305 385.736 384.263 384.447 383.002 383.396C381.74 382.345 380.285 381.553 378.717 381.065C377.15 380.577 375.502 380.402 373.867 380.551C372.232 380.7 370.643 381.169 369.189 381.932C367.736 382.695 366.447 383.737 365.396 384.998Z" fill="url(#paint0_linear_59_2)"/>
<path fill-rule="evenodd" clip-rule="evenodd" d="M702.466 218L637.857 174.924C635.303 173.222 633.465 170.638 632.693 167.667C623.488 132.366 601.734 101.629 571.504 81.2076C541.274 60.786 504.638 52.0795 468.453 56.7171C432.267 61.3547 399.011 79.0188 374.908 106.404C350.805 133.789 337.506 169.018 337.5 205.5V268C337.499 270.839 336.533 273.593 334.759 275.809L51.0069 630.5H350C426.223 630.414 499.3 600.096 553.198 546.198C607.096 492.3 637.413 419.223 637.5 343V268C637.5 265.942 638.007 263.916 638.978 262.102C639.95 260.287 641.354 258.741 643.066 257.6L702.466 218ZM533.287 194.389C536.034 190.278 537.5 185.445 537.5 180.5C537.5 177.217 536.853 173.966 535.597 170.933C534.341 167.9 532.499 165.144 530.178 162.822C527.856 160.501 525.1 158.659 522.067 157.403C519.034 156.147 515.783 155.5 512.5 155.5C507.555 155.5 502.722 156.966 498.611 159.713C494.499 162.46 491.295 166.365 489.403 170.933C487.511 175.501 487.016 180.528 487.98 185.377C488.945 190.227 491.326 194.681 494.822 198.178C498.318 201.674 502.773 204.055 507.623 205.02C512.472 205.984 517.499 205.489 522.067 203.597C526.635 201.705 530.54 198.501 533.287 194.389ZM240.396 534.998L365.396 384.998C366.447 383.737 367.736 382.695 369.189 381.932C370.643 381.169 372.232 380.7 373.867 380.551C375.502 380.402 377.15 380.577 378.717 381.065C380.285 381.553 381.74 382.345 383.002 383.396C384.263 384.447 385.305 385.736 386.068 387.189C386.831 388.643 387.3 390.232 387.449 391.867C387.598 393.502 387.423 395.15 386.935 396.717C386.447 398.285 385.655 399.741 384.604 401.002L259.604 551.002C258.553 552.263 257.264 553.305 255.811 554.068C254.357 554.831 252.768 555.3 251.133 555.449C249.498 555.598 247.85 555.423 246.282 554.935C244.715 554.447 243.259 553.655 241.998 552.604C240.737 551.553 239.695 550.264 238.932 548.811C238.169 547.357 237.7 545.768 237.551 544.133C237.402 542.498 237.577 540.85 238.065 539.283C238.553 537.715 239.345 536.26 240.396 534.998Z" fill="url(#paint1_linear_59_2)"/>
<path d="M537.5 180.5C537.5 185.445 536.034 190.278 533.287 194.389C530.54 198.501 526.635 201.705 522.067 203.597C517.499 205.489 512.472 205.984 507.623 205.02C502.773 204.055 498.318 201.674 494.822 198.178C491.326 194.681 488.945 190.227 487.98 185.377C487.016 180.528 487.511 175.501 489.403 170.933C491.295 166.365 494.499 162.46 498.611 159.713C502.722 156.966 507.555 155.5 512.5 155.5C515.783 155.5 519.034 156.147 522.067 157.403C525.1 158.659 527.856 160.501 530.178 162.822C532.499 165.144 534.341 167.9 535.597 170.933C536.853 173.966 537.5 177.217 537.5 180.5Z" fill="url(#paint2_linear_59_2)"/>
<path fill-rule="evenodd" clip-rule="evenodd" d="M737.5 218C737.5 220.058 736.992 222.084 736.021 223.898C735.05 225.713 733.646 227.259 731.933 228.4L662.5 274.689V343C662.406 425.851 629.452 505.283 570.867 563.868C512.283 622.453 432.851 655.407 350 655.5H24.9998C22.6452 655.5 20.3383 654.835 18.345 653.582C16.3518 652.328 14.7531 650.537 13.7333 648.414C12.7134 646.292 12.3138 643.925 12.5804 641.585C12.8471 639.246 13.7692 637.029 15.2405 635.191L312.5 263.615V205.5C312.506 163.354 327.72 122.625 355.347 90.7957C382.974 58.9669 421.158 38.176 462.885 32.2426C504.612 26.3092 547.078 35.6319 582.483 58.4979C617.887 81.3638 643.852 116.237 655.606 156.712L731.934 207.6C733.646 208.741 735.05 210.287 736.021 212.102C736.992 213.916 737.5 215.942 737.5 218ZM637.857 174.924L702.466 218L643.066 257.6C641.354 258.741 639.95 260.287 638.978 262.102C638.007 263.916 637.5 265.942 637.5 268V343C637.413 419.223 607.096 492.3 553.198 546.198C499.3 600.096 426.223 630.414 350 630.5H51.0069L334.759 275.809C336.533 273.593 337.499 270.839 337.5 268V205.5C337.506 169.018 350.805 133.789 374.908 106.404C399.011 79.0188 432.267 61.3547 468.453 56.7171C504.638 52.0795 541.274 60.786 571.504 81.2076C601.734 101.629 623.488 132.366 632.693 167.667C633.465 170.638 635.303 173.222 637.857 174.924Z" fill="url(#paint3_linear_59_2)"/>
<defs>
<linearGradient id="paint0_linear_59_2" x1="375" y1="30.4991" x2="375" y2="655.5" gradientUnits="userSpaceOnUse">
<stop stop-color="#101010"/>
<stop offset="1" stop-color="#3F3F3F"/>
</linearGradient>
<linearGradient id="paint1_linear_59_2" x1="375" y1="30.4991" x2="375" y2="655.5" gradientUnits="userSpaceOnUse">
<stop stop-color="#F1F1F1"/>
<stop offset="1" stop-color="#AFAFAF"/>
</linearGradient>
<linearGradient id="paint2_linear_59_2" x1="375" y1="30.4991" x2="375" y2="655.5" gradientUnits="userSpaceOnUse">
<stop stop-color="#101010"/>
<stop offset="1" stop-color="#3F3F3F"/>
</linearGradient>
<linearGradient id="paint3_linear_59_2" x1="375" y1="30.4991" x2="375" y2="655.5" gradientUnits="userSpaceOnUse">
<stop stop-color="#101010"/>
<stop offset="1" stop-color="#3F3F3F"/>
</linearGradient>
</defs>
</svg>
